<svg width="261" height="260" viewBox="0 0 261 260" fill="none" xmlns="http://www.w3.org/2000/svg">
<path d="M180.778 147.916C180.778 147.916 150.927 147.536 136.073 117.97C115.572 77.1572 158.236 55.1846 158.236 55.1846L196.106 61.9235L180.778 147.916Z" fill="white"/>
<path d="M87.4772 157.834L93.8839 158.973L91.6534 153.421L87.4772 157.834Z" fill="white"/>
<path d="M120.602 132.303C95.6873 106.249 95.4974 75.3066 111.111 47.0222L90.3721 43.3206L67.213 174.872L172.663 193.427L179.639 154.133C179.639 154.133 145.565 158.309 120.602 132.303ZM96.1144 164.289L94.9754 161.394L85.6738 159.733L83.4908 162.011L77.9858 161.062L89.1856 149.957L95.1178 151.001L101.762 165.285L96.1144 164.289ZM125.111 158.689L117.612 157.36L115.762 167.8L110.494 166.851L112.345 156.411L104.799 155.082L105.179 152.851L125.538 156.458L125.111 158.689ZM150.643 167.421C150.215 169.699 148.649 171.217 145.897 171.977C143.809 172.641 141.009 172.641 137.402 171.977C133.795 171.312 131.138 170.363 129.429 169.034C127.104 167.373 126.155 165.38 126.534 163.102C126.961 160.777 128.528 159.258 131.28 158.546C133.368 157.882 136.168 157.882 139.775 158.546C143.382 159.163 146.039 160.16 147.748 161.489C150.073 163.15 151.022 165.095 150.643 167.421ZM171.191 177.672L153.49 174.539L155.768 161.868L161.036 162.817L159.185 173.211L171.619 175.441L171.191 177.672Z" fill="white"/>
<path d="M139.395 160.824C137.307 160.445 135.599 160.539 134.222 161.109C132.846 161.678 132.039 162.675 131.755 164.099C131.517 165.522 131.944 166.756 133.036 167.753C134.128 168.75 135.741 169.414 137.829 169.794C139.917 170.173 141.626 170.078 143.002 169.509C144.378 168.939 145.185 167.943 145.422 166.519C145.66 165.095 145.28 163.861 144.188 162.865C143.049 161.868 141.436 161.204 139.395 160.824Z" fill="white"/>
<path d="M2.10193 107.435C-10.3318 178.004 36.9354 245.582 107.552 258.016C178.168 270.45 245.699 223.135 258.133 152.567C259.462 144.973 260.126 137.38 260.126 129.93C260.126 68.0455 215.659 13.0902 152.683 1.98529C82.1145 -10.4485 14.5357 36.8188 2.10193 107.435ZM108.975 249.759C42.9625 238.132 -1.26752 174.919 10.3595 108.906C21.9864 42.8458 85.1992 -1.38416 151.212 10.2428C217.272 21.8698 261.502 85.0826 249.875 151.143C238.248 217.156 175.035 261.386 108.975 249.759Z" fill="white"/>
<path d="M18.617 158.024C18.4272 157.028 18.2848 156.031 18.0001 155.082C17.7153 154.133 17.3831 153.184 17.0035 152.234L43.3896 145.021L45.9523 154.512C47.4235 159.875 46.0472 163.339 41.6812 164.526C34.8473 166.377 31.9999 161.773 30.1016 154.845L18.617 158.024ZM32.3321 154.275C32.6169 155.129 32.9016 155.984 33.2813 156.743C34.6575 159.068 37.1253 159.4 39.4507 158.736C42.5354 157.882 44.1489 155.746 43.5794 153.753L42.915 151.38L32.3321 154.275Z" fill="white"/>
<path d="M49.9386 166.329L54.2572 173.637C55.2064 175.251 56.7725 177.719 56.8199 179.617C56.9623 182.18 56.0131 184.125 53.6403 185.502C50.2708 187.495 46.8539 186.546 44.2912 183.746C42.1082 187.59 40.1625 191.576 38.2167 195.515L36.8879 198.125C36.3659 197.034 35.8439 195.942 35.2269 194.898C34.61 193.854 33.8982 192.905 33.2338 191.908L38.0744 183.556C38.6913 182.512 39.7354 180.614 40.5896 179.095L40.4472 178.858L29.3897 185.359C28.9626 184.458 28.5355 183.556 28.0609 182.654C27.5389 181.8 26.9694 180.993 26.3525 180.187L49.9386 166.329ZM41.8709 178.004C43.6268 181.8 46.4268 182.607 49.9861 180.519C50.4607 180.234 50.9827 179.902 51.5996 179.332C54.1149 177.102 52.359 174.682 51.1251 172.593L41.8709 178.004Z" fill="white"/>
<path d="M53.7827 216.634C47.1387 210.844 46.0946 203.013 52.0742 196.18C57.2945 190.2 65.8842 189.203 73.3824 195.705C81.9247 203.203 79.1722 211.461 75.1383 216.112C70.013 222.044 61.1385 223.088 53.7827 216.634ZM56.2979 201.447C52.881 205.339 51.0301 211.034 55.5386 214.973C60.1419 219.006 66.2639 216.206 70.6299 211.223C73.9994 207.332 76.0875 201.352 71.6265 197.366C67.4503 193.759 62.1826 194.708 56.2979 201.447Z" fill="white"/>
<path d="M87.2399 236.708C86.3382 236.233 85.484 235.711 84.5823 235.332C83.6806 234.952 82.684 234.667 81.7349 234.335L91.4636 211.793C88.8535 210.654 86.4331 209.942 84.4399 209.373C84.7247 208.898 85.0569 208.424 85.2942 207.854C85.5315 207.332 85.6264 206.763 85.7687 206.24L104.609 214.403C104.324 214.878 103.992 215.352 103.755 215.874C103.518 216.444 103.423 216.966 103.28 217.535C101.24 216.349 99.1991 215.162 96.9686 214.166L87.2399 236.708Z" fill="white"/>
<path d="M123.734 217.725C123.545 218.247 123.355 218.817 123.26 219.386C123.165 219.956 123.165 220.525 123.165 221.095C120.839 220.383 118.182 219.624 114.148 219.007L112.724 227.454L116.806 228.166C118.562 228.451 120.223 228.593 121.694 228.64C121.504 229.162 121.314 229.732 121.219 230.301C121.124 230.871 121.124 231.44 121.124 232.01C119.701 231.583 118.134 231.156 116.331 230.823L112.25 230.112L110.541 240.125C114.575 240.789 117.28 241.027 119.701 241.122C119.511 241.644 119.321 242.213 119.226 242.783C119.131 243.352 119.131 243.922 119.131 244.491L104.135 241.928L108.69 215.163L123.734 217.725Z" fill="white"/>
<path d="M152.256 238.701L151.734 242.213C149.456 243.684 146.704 244.443 144.046 244.681C135.551 245.487 128.622 240.884 127.816 232.769C126.819 222.423 133.511 216.966 142.148 216.159C144.758 215.922 148.032 216.254 150.453 217.298C150.215 218.674 150.12 220.05 149.931 221.474L149.361 221.521C147.7 219.528 144.995 218.247 142.432 218.484C135.836 219.101 133.795 225.698 134.365 231.535C135.029 238.321 138.826 242.782 144.948 242.165C147.415 241.928 150.168 240.362 151.781 238.511L152.256 238.701Z" fill="white"/>
<path d="M174.893 235.901C173.944 236.186 172.947 236.423 172.046 236.803C171.097 237.182 170.242 237.657 169.341 238.084L160.371 215.257C157.714 216.301 155.483 217.488 153.68 218.484C153.537 217.915 153.443 217.393 153.253 216.823C153.063 216.301 152.731 215.827 152.446 215.352L171.571 207.854C171.713 208.423 171.808 208.945 171.998 209.468C172.236 210.037 172.52 210.512 172.805 210.986C170.527 211.603 168.202 212.173 165.971 213.074L174.893 235.901Z" fill="white"/>
<path d="M187.374 196.749C187.612 197.271 187.896 197.793 188.181 198.268C188.513 198.742 188.94 199.122 189.32 199.549C187.137 200.688 184.764 202.017 181.49 204.39L186.425 211.413L189.795 209.04C191.266 207.996 192.5 206.952 193.591 205.908C193.828 206.43 194.113 206.952 194.398 207.427C194.73 207.901 195.157 208.281 195.537 208.708C194.208 209.42 192.784 210.227 191.313 211.223L187.944 213.596L193.781 221.901C197.103 219.528 199.191 217.772 200.994 216.112C201.232 216.634 201.517 217.156 201.801 217.63C202.133 218.105 202.561 218.484 202.94 218.911L190.506 227.691L174.846 205.481L187.374 196.749Z" fill="white"/>
<path d="M199.808 183.034C205.361 176.532 212.194 177.482 217.32 181.515C224.391 187.115 224.676 195.42 219.598 201.827L212.669 210.607L191.361 193.759L199.808 183.034ZM214.567 204.485L216.655 201.827C220.072 197.508 220.499 192.525 213.191 186.736C207.306 182.085 202.798 183.034 199.286 187.448L196.866 190.532L214.567 204.485Z" fill="white"/>
<path d="M107.077 42.229L102.094 41.3273L105.416 22.4868C103.28 23.8631 100.908 24.7648 98.2974 25.1444L99.1042 20.5885C100.48 20.3987 102.047 19.8292 103.802 18.9275C105.558 18.0259 106.84 16.792 107.694 15.3208L111.775 16.0327L107.077 42.229Z" fill="white"/>
<path d="M132.277 41.8493L131.47 46.5001L113.958 43.4154C114.48 41.7069 115.335 40.1409 116.568 38.7171C117.802 37.2934 120.033 35.5375 123.307 33.4494C125.917 31.741 127.578 30.5545 128.195 29.8901C129.05 28.9884 129.572 28.0393 129.761 26.9953C129.951 25.8563 129.809 24.9546 129.334 24.2427C128.86 23.5309 128.053 23.1038 127.009 22.9139C125.965 22.7241 125.063 22.9139 124.351 23.436C123.639 23.958 123.07 24.9546 122.738 26.3783L117.85 25.002C118.609 22.297 119.89 20.4936 121.694 19.5445C123.45 18.6428 125.538 18.3581 127.863 18.7852C130.426 19.2597 132.324 20.3038 133.558 21.9173C134.792 23.5783 135.219 25.4292 134.839 27.4698C134.65 28.6562 134.222 29.7478 133.605 30.6969C132.989 31.6935 132.134 32.6901 130.995 33.6867C130.236 34.3511 128.955 35.2528 127.151 36.4392C125.3 37.6256 124.162 38.3849 123.639 38.8121C123.117 39.1917 122.69 39.6188 122.358 39.9985L132.277 41.8493Z" fill="white"/>
<path d="M135.883 40.1407L140.819 40.4254C140.771 41.7067 141.009 42.7033 141.578 43.4627C142.148 44.222 142.907 44.6965 143.856 44.8864C144.9 45.0762 145.849 44.8389 146.656 44.1745C147.51 43.5101 148.032 42.5135 148.27 41.1847C148.507 39.9508 148.317 38.8593 147.795 38.0051C147.226 37.1509 146.466 36.6288 145.517 36.4865C144.9 36.3916 144.093 36.3441 143.144 36.439L144.426 32.4526C145.754 32.7374 146.846 32.595 147.7 32.1204C148.507 31.6458 149.029 30.8391 149.219 29.8425C149.361 28.9408 149.219 28.2289 148.792 27.612C148.365 26.995 147.7 26.6154 146.846 26.473C145.992 26.3307 145.232 26.473 144.521 26.9951C143.809 27.4696 143.287 28.2764 142.955 29.4154L138.494 27.8018C139.11 26.2832 139.775 25.0968 140.629 24.29C141.436 23.4832 142.48 22.8663 143.714 22.5341C144.948 22.2019 146.324 22.1544 147.748 22.3917C150.215 22.8188 152.019 23.9578 153.253 25.7612C154.249 27.2798 154.581 28.7984 154.297 30.412C153.87 32.6899 152.304 34.3034 149.551 35.2526C150.975 35.8221 152.066 36.7712 152.778 38.0525C153.49 39.3339 153.68 40.7576 153.395 42.3237C152.968 44.6016 151.829 46.405 149.836 47.7338C147.89 49.0626 145.66 49.4897 143.144 49.0626C140.771 48.6355 138.968 47.6389 137.639 45.9779C136.358 44.3169 135.741 42.3711 135.883 40.1407Z" fill="white"/>
<path d="M175.558 33.9714L170.622 33.6392C170.669 32.6426 170.48 31.8358 170.1 31.2663C169.673 30.6968 169.103 30.3646 168.297 30.2223C167.253 30.0324 166.256 30.3646 165.354 31.1714C164.453 31.9782 163.646 33.8764 162.934 36.8662C164.453 35.6324 166.114 35.1578 167.964 35.49C170.052 35.8696 171.714 36.9612 172.9 38.812C174.086 40.6628 174.513 42.8458 174.039 45.3611C173.564 48.0187 172.425 50.0119 170.575 51.3881C168.724 52.7169 166.588 53.1915 164.12 52.7644C161.463 52.2898 159.517 50.9135 158.188 48.5407C156.859 46.2153 156.575 42.7035 157.429 38.0052C158.283 33.2121 159.754 29.9375 161.89 28.1341C164.025 26.3308 166.493 25.6664 169.341 26.1884C171.334 26.5206 172.852 27.3748 173.991 28.7036C174.988 30.0324 175.558 31.7883 175.558 33.9714ZM162.27 42.8933C161.985 44.5068 162.127 45.8356 162.744 46.8322C163.314 47.8288 164.12 48.4458 165.07 48.5881C166.019 48.7305 166.825 48.5407 167.585 47.9237C168.344 47.3068 168.866 46.1678 169.151 44.5068C169.436 42.7984 169.341 41.517 168.819 40.6154C168.297 39.7137 167.537 39.1916 166.541 39.0018C165.592 38.812 164.69 39.0493 163.883 39.7137C163.076 40.3306 162.554 41.4221 162.27 42.8933Z" fill="white"/>
<path d="M176.649 47.544L181.727 47.9237C181.679 49.0627 181.917 50.0593 182.534 50.8186C183.103 51.5779 183.863 52.0525 184.764 52.2423C185.808 52.4321 186.757 52.1474 187.659 51.4355C188.513 50.7237 189.13 49.4898 189.415 47.7813C189.7 46.1678 189.557 44.9339 188.988 43.9848C188.418 43.0356 187.564 42.5136 186.378 42.2763C184.954 42.039 183.53 42.4187 182.202 43.5102L178.263 42.2289L183.198 29.0833L196.439 31.4086L195.632 36.1069L186.188 34.4459L184.622 38.717C185.856 38.3374 187.042 38.2899 188.181 38.4798C190.412 38.8594 192.12 39.9984 193.401 41.8967C194.683 43.7949 195.062 46.0254 194.588 48.5881C194.208 50.7237 193.259 52.527 191.693 53.9982C189.605 55.9914 187.042 56.7507 184.005 56.2287C181.585 55.8016 179.734 54.805 178.452 53.2389C177.171 51.6728 176.554 49.7745 176.649 47.544Z" fill="white"/>
</svg>
