<svg width="635" height="260" viewBox="0 0 635 260" fill="none" xmlns="http://www.w3.org/2000/svg">
<path d="M546.726 0C539.337 0 531.628 0.642451 524.24 1.92735C454.534 14.4551 407.635 81.5913 420.163 151.618C421.448 159.649 423.696 167.68 426.587 175.068H0V180.207H634.42V175.389H616.753C618.038 159.97 617.395 142.945 614.825 125.278L634.42 121.744V105.683L612.256 109.538C609.043 94.4403 604.868 80.3064 599.407 67.1361C609.686 61.9965 619.323 56.2145 627.032 49.7899C629.602 52.3597 632.172 55.2508 634.42 58.1418V35.0136C629.923 30.8376 625.426 26.9829 620.286 23.4495C598.443 8.03064 573.066 0 547.047 0L546.726 0ZM567.284 42.0805C571.139 47.2201 574.672 53.0022 577.885 59.1055C567.284 63.2814 555.72 66.8149 543.835 69.3847L534.84 17.6674C545.441 19.5948 556.684 27.9466 567.284 42.0805ZM497.257 54.6083C502.397 37.9046 510.106 25.698 519.422 20.5584L528.416 72.2757C516.209 73.8818 504.324 74.8455 493.081 74.5243C494.045 67.4573 495.33 61.0328 497.257 54.6083ZM444.255 82.2337C453.892 85.446 464.492 87.6945 476.056 88.9794C475.414 102.792 476.056 117.89 478.305 133.309L434.618 141.018C432.369 120.138 435.903 100.222 444.255 82.2337ZM443.612 175.389C441.043 169.607 438.794 163.183 437.188 156.758L480.874 149.049C482.802 158.043 485.05 167.037 487.941 175.389H443.612ZM477.341 73.2394C468.025 72.2757 459.352 70.3484 451.643 68.0998C461.28 53.3234 474.129 40.4744 489.548 31.4801C483.765 43.0442 479.59 57.1781 477.341 73.2394ZM491.796 90.2643C504.324 90.5856 517.815 89.9431 531.307 87.6945L537.41 122.708L493.723 130.418C491.796 116.605 491.154 102.792 491.796 89.9431V90.2643ZM504.645 175.389C501.433 166.074 498.542 156.437 496.615 146.479L540.301 138.769L546.726 175.71H504.645V175.389ZM546.726 85.1247C560.217 82.2337 573.066 78.379 584.63 73.8818C589.449 85.7672 593.625 98.9374 596.516 112.75L552.829 120.46L546.726 85.446V85.1247ZM599.407 128.169C601.655 144.551 602.298 160.613 601.013 175.389H562.787L555.72 135.878L599.407 128.169ZM592.661 53.0022C588.806 45.614 584.63 38.8683 580.133 32.765C575.957 26.9829 571.46 22.1646 566.963 17.9886C582.703 20.8797 597.801 27.3042 611.292 36.6197C612.577 37.5834 613.862 38.5471 615.147 39.5107C608.722 44.3291 601.013 49.1475 592.661 53.3234V53.0022Z" fill="white"/>
<path d="M73.5606 121.423C72.2757 117.568 70.0272 112.429 67.7786 106.647L61.3541 90.9065H27.3042L20.8797 106.325C17.9887 113.392 16.0613 117.889 15.0976 121.423H3.21228C6.10331 115.641 9.63679 108.895 12.5278 101.507L43.3655 29.5525H46.2565L77.4154 101.507C80.6276 108.895 84.1611 115.962 87.0521 121.423M44.0079 48.826L30.5164 81.9122H57.4994L44.0079 48.826Z" fill="white"/>
<path d="M103.113 97.6528V56.2147C103.113 47.2204 103.113 35.0138 102.471 30.8379H121.745C138.448 30.8379 147.121 40.7959 147.121 52.0388C147.121 63.2817 141.661 67.7788 135.878 69.7062C146.479 72.9184 153.867 81.9127 153.867 94.1193C153.867 106.326 142.303 120.781 123.351 120.781H102.471C102.792 116.605 103.113 106.326 103.113 97.3316M113.714 67.7788H123.672C131.06 67.7788 136.521 61.9968 136.521 53.6449C136.521 45.293 129.775 39.511 120.781 39.511H113.393V67.7788H113.714ZM124.314 75.8095H113.714V112.75H122.708C134.594 112.75 143.267 105.362 143.267 94.4405C143.267 83.5189 134.915 75.8095 123.993 75.8095H124.314Z" fill="white"/>
<path d="M211.045 31.1591C220.039 31.1591 229.676 31.1591 233.531 30.8379V40.4747C229.355 40.4747 220.039 39.8322 211.045 39.8322H202.051V97.6528C202.051 106.647 202.051 117.248 202.693 121.102H191.129C191.129 116.926 191.45 106.647 191.45 97.6528V56.8572C191.45 51.3963 191.45 44.6506 191.129 39.8322H182.135C173.141 39.8322 163.825 39.8322 159.649 40.4747V30.8379C163.825 30.8379 173.141 31.1591 182.135 31.1591" fill="white"/>
<path d="M278.824 29.5525C304.843 29.5525 325.08 50.4321 325.08 76.1302C325.08 101.828 304.843 122.708 278.824 122.708C252.804 122.708 232.567 101.828 232.567 76.1302C232.567 50.4321 252.804 29.5525 278.824 29.5525ZM278.824 113.714C298.418 113.714 314.159 97.0098 314.159 76.1302C314.159 55.2505 298.418 38.868 278.824 38.868C259.229 38.868 243.489 55.5718 243.489 76.1302C243.489 96.6886 259.229 113.714 278.824 113.714Z" fill="white"/>
<path d="M375.834 31.1591C384.828 31.1591 394.465 31.1591 398.32 30.8379V40.4747C394.144 40.4747 384.828 39.8322 375.834 39.8322H366.839V97.6528C366.839 106.647 366.839 117.248 367.482 121.102H355.918C355.918 116.926 356.239 106.647 356.239 97.6528V56.8572C356.239 51.3963 356.239 44.6506 355.918 39.8322H346.923C337.929 39.8322 328.614 39.8322 324.438 40.4747V30.8379C328.614 30.8379 337.929 31.1591 346.923 31.1591" fill="white"/>
<path d="M418.942 247.601C421.094 250.267 425.688 251.937 429.8 251.937C436.063 251.937 440.721 248.018 440.721 242.301C440.721 236.583 435.903 232.664 429.575 232.664C426.459 232.664 422.668 233.306 420.42 234.977C421.93 227.524 423.536 220.618 425.078 213.711C425.72 210.339 426.298 206.966 426.523 204.974C427.969 205.135 429.639 205.231 432.145 205.231H441.042C443.933 205.231 446.407 205.135 448.174 204.91V213.422C446.182 213.358 444.415 213.262 441.589 213.262H432.851L429.96 225.854C430.763 225.533 432.53 225.308 434.2 225.308C443.42 225.308 450.808 231.893 450.808 242.172C450.808 252.451 442.295 260 431.791 260C426.009 260 421.769 258.073 418.942 257.334V247.633V247.601Z" fill="white"/>
<path d="M479.59 258.908C479.814 256.916 479.814 254.025 479.814 251.134V243.682H466.644C463.817 243.682 459.899 243.682 457.168 243.843V239.667L485.661 204.268H489.194C489.194 206.356 489.098 210.371 489.098 213.808V236.776C493.37 236.776 496.229 236.711 498.092 236.519V243.907C496.101 243.746 493.21 243.65 489.098 243.65V251.102C489.098 254.058 489.258 257.045 489.355 258.876H479.557L479.59 258.908ZM467.704 236.743H479.814V220.522L467.704 236.743Z" fill="white"/>
<path d="M504.645 258.908C505.93 257.045 508.339 252.644 509.464 250.556C515.952 237.803 521.574 226.303 527.677 213.551H511.616C508.725 213.551 505.288 213.711 503.746 213.872V204.974C505.416 205.135 508.885 205.231 511.616 205.231H532.977C535.547 205.231 538.92 205.231 540.847 205.07C539.819 206.741 538.374 209.568 537.089 212.041C530.343 225.757 524.561 238.125 518.137 251.616C516.916 254.186 515.406 257.398 514.86 258.908H504.677H504.645Z" fill="white"/>
<path d="M546.469 247.601C548.621 250.267 553.215 251.937 557.294 251.937C563.558 251.937 568.216 248.018 568.216 242.301C568.216 236.583 563.397 232.664 557.069 232.664C553.953 232.664 550.163 233.306 547.914 234.977C549.424 227.524 551.03 220.618 552.572 213.711C553.215 210.339 553.793 206.966 554.018 204.974C555.463 205.135 557.133 205.231 559.639 205.231H568.537C571.428 205.231 573.901 205.135 575.668 204.91V213.422C573.677 213.358 571.91 213.262 569.083 213.262H560.346L557.455 225.854C558.258 225.533 560.024 225.308 561.727 225.308C570.946 225.308 578.334 231.893 578.334 242.172C578.334 252.451 569.822 260 559.318 260C553.536 260 549.296 258.073 546.469 257.334V247.633V247.601Z" fill="white"/>
<path d="M3.62988 258.907C4.27233 256.241 5.23601 250.17 6.10332 244.388L12.5921 202.886H15.0013L35.2385 244.645L55.9575 202.886H58.5273L63.7312 245.609C64.5342 251.487 65.1767 255.245 66.0761 258.94H55.3151C55.3151 256.627 54.9938 253.479 54.512 248.757L51.9422 224.922L35.8809 259.454H33.4717L17.6674 224.922L14.4552 248.853C13.9091 252.772 13.4915 256.402 13.4273 258.972H3.62988V258.907Z" fill="white"/>
<path d="M103.499 257.623C100.865 257.88 98.0381 259.55 91.5493 259.55C80.4671 259.55 72.3722 251.294 72.3722 240.694C72.3722 230.094 80.0816 221.517 90.0396 221.517C101.122 221.517 107.289 231.378 107.289 239.409C107.289 240.212 107.225 241.176 107.129 241.561H81.5914C81.9126 247.408 86.474 252.387 93.0591 252.387C97.3956 252.387 100.287 251.841 103.499 249.72V257.59V257.623ZM97.8775 235.394C97.3956 231.925 94.601 228.102 89.9432 228.102C85.703 228.102 82.6514 231.218 81.5271 235.394H97.9096H97.8775Z" fill="white"/>
<path d="M115.545 258.907C115.609 257.044 115.705 253.286 115.705 250.652V227.46H111.851C112.718 226.11 113.778 223.765 114.324 222.159H124.764V227.299C126.691 223.926 130.064 221.517 135.043 221.517C140.665 221.517 143.716 224.183 145.162 228.006C146.672 224.569 150.141 221.517 155.923 221.517C163.632 221.517 168.515 226.721 168.515 236.614V250.652C168.515 253.607 168.579 256.659 168.836 258.907H159.296C159.456 256.498 159.521 252.74 159.521 250.652V237.803C159.521 231.475 157.272 228.744 153.192 228.744C149.659 228.744 146.704 231.86 146.704 237.418V250.652C146.704 253.704 146.8 256.595 146.961 258.907H137.42C137.581 256.498 137.645 253.704 137.645 250.652V237.161C137.645 231.957 135.718 228.744 131.317 228.744C127.719 228.744 124.828 231.796 124.828 237.418V250.652C124.828 253.286 124.892 257.077 125.085 258.907H115.609H115.545Z" fill="white"/>
<path d="M178.441 258.908C178.666 256.499 178.762 252.644 178.762 250.717V205.263H174.907C175.646 203.978 176.835 201.505 177.316 199.963H188.078C187.853 201.665 187.756 205.424 187.756 208.154V227.813C189.909 223.894 194.727 221.389 200.123 221.389C210.724 221.389 218.112 229.74 218.112 240.18C218.112 251.327 210.017 259.454 199.32 259.454C194.823 259.454 190.005 257.366 187.756 253.511C187.756 254.957 187.853 257.687 187.917 258.876H178.441V258.908ZM198.26 251.937C204.042 251.937 208.861 246.798 208.861 240.469C208.861 234.141 204.042 229.002 198.1 229.002C192.157 229.002 187.499 234.206 187.499 240.469C187.499 246.733 192.318 251.937 198.26 251.937Z" fill="white"/>
<path d="M255.76 257.623C253.126 257.88 250.299 259.55 243.81 259.55C232.728 259.55 224.633 251.294 224.633 240.694C224.633 230.094 232.342 221.517 242.3 221.517C253.383 221.517 259.55 231.378 259.55 239.409C259.55 240.212 259.486 241.176 259.39 241.561H233.852C234.173 247.408 238.735 252.387 245.32 252.387C249.656 252.387 252.547 251.841 255.76 249.72V257.59V257.623ZM250.138 235.394C249.656 231.925 246.862 228.102 242.204 228.102C237.964 228.102 234.912 231.218 233.788 235.394H250.17H250.138Z" fill="white"/>
<path d="M268.223 258.908C268.384 256.177 268.448 253.447 268.448 250.716V227.427H264.593C265.557 225.918 266.521 223.733 267.067 222.127H276.607V230.383C277.956 225.018 281.972 221.388 286.469 221.388C288.814 221.388 289.296 221.774 290.324 221.774V231.411C288.974 230.511 287.208 229.901 285.023 229.901C280.526 229.901 277.475 235.362 277.475 240.341V250.684C277.475 253.415 277.539 256.145 277.731 258.875H268.191L268.223 258.908Z" fill="white"/>
</svg>
