<svg width="676" height="260" viewBox="0 0 676 260" fill="none" xmlns="http://www.w3.org/2000/svg">
<path d="M51.8096 220.952H39.4287V259.048H31.0477V220.952H17.9048V214.095H53.5239L51.8096 220.952Z" fill="white"/>
<path d="M71.2382 234.476C69.9049 233.715 68.3811 233.524 67.4287 233.524C65.5239 233.524 63.4287 234.476 61.143 236.381V259.238H52.9525V226.857H59.8096L60.762 230.286C64.0001 227.429 66.6668 226.095 69.7144 226.095C71.2382 226.095 72.9525 226.667 74.2858 227.429L71.2382 234.476Z" fill="white"/>
<path d="M96.3811 259.238L95.0477 256.381C92.9525 258.286 89.9049 260 85.7144 260C79.8097 260 75.0477 256 75.0477 249.524C75.0477 242.857 80.3811 239.238 88.5716 238.857L94.2859 238.667C94.2859 238.476 94.2859 238.095 94.2859 237.905C94.2859 234.095 91.4287 232.381 88.0001 232.381C84.5716 232.381 81.7144 233.524 79.6192 234.857L76.9525 229.714C81.3335 226.857 85.3335 226.095 89.5239 226.095C97.524 226.095 102.286 229.334 102.286 237.905V250.667C102.286 255.238 102.476 257.715 102.857 259.238H96.3811ZM94.2859 244.381L89.7144 244.572C85.3335 244.762 83.2382 246.286 83.2382 248.953C83.2382 251.619 85.143 253.524 88.5716 253.524C91.4287 253.524 93.3335 252.381 94.4763 251.429V244.381H94.2859Z" fill="white"/>
<path d="M124.953 259.429H119.048L105.714 226.857H114.095L122.095 248.952H122.286L130.476 226.857H138.476L124.953 259.429Z" fill="white"/>
<path d="M148.381 245.143C148.572 249.905 152.572 253.334 157.524 253.334C160.572 253.334 163.048 252.572 165.905 251.048L167.81 256.381C164.191 258.857 159.81 260 156 260C144.762 260 140 251.81 140 243.048C140 233.905 145.524 226.095 154.667 226.095C163.429 226.095 169.143 232.762 169.143 242.857C169.143 243.429 169.143 244.191 169.143 245.334H148.381V245.143ZM154.476 232.191C150.476 232.191 148.191 235.81 148.191 239.238H160.762C160.572 235.81 158.667 232.191 154.476 232.191Z" fill="white"/>
<path d="M182.857 259.809C177.524 259.809 175.429 256.762 175.429 252.762V210.667H183.619V248.952C183.619 251.428 184.191 252.381 185.715 252.381C186.286 252.381 186.857 252.381 188.191 252L189.143 258.095C186.667 259.428 184.572 259.809 182.857 259.809Z" fill="white"/>
<path d="M245.524 259.429H239.238L232 237.333H231.81L224.572 259.429H218.286L206.476 226.857H214.857L221.715 248.762H221.905L228.953 226.857H235.238L242.476 248.762H242.667L249.524 226.857H257.334L245.524 259.429Z" fill="white"/>
<path d="M266.477 221.714C263.619 221.714 261.334 219.619 261.334 216.762C261.334 214.095 263.429 211.81 266.477 211.81C269.524 211.81 271.619 213.905 271.619 216.762C271.619 219.619 269.334 221.714 266.477 221.714ZM262.477 259.238V226.857H270.667V259.238H262.477Z" fill="white"/>
<path d="M290.096 259.81C284.381 259.81 282.096 256.571 282.096 252.191V232.952H276.381V226.857H282.096V219.429L290.286 216.952V226.857H300.381L297.905 232.952H290.286V249.143C290.286 251.619 291.238 252.762 293.334 252.762C295.429 252.762 297.524 251.81 298.667 251.048L300.762 256.191C297.715 258.667 293.334 259.81 290.096 259.81Z" fill="white"/>
<path d="M326.477 259.238V240.381C326.477 236.762 325.905 233.333 321.524 233.333C318.667 233.333 315.81 234.857 313.715 236.762V259.238H305.524V210.857H313.715V230.476C316.762 228 320.191 226.286 324.381 226.286C329.334 226.286 334.667 228.762 334.667 238.095V259.238H326.477Z" fill="white"/>
<path d="M372.953 259.81C362.477 259.81 356.953 252.191 356.953 243.048C356.953 233.143 364 225.905 373.715 225.905C378.096 225.905 381.143 227.048 382.858 228.191L382.667 234.857C380.381 233.143 377.905 232.191 374.477 232.191C368.953 232.191 364.953 236.571 364.953 242.667C364.953 248.191 368 253.143 374.477 253.143C377.524 253.143 379.81 252.191 382.096 250.857L384.191 256.191C381.905 258.095 377.524 259.81 372.953 259.81Z" fill="white"/>
<path d="M415.429 255.238C412.572 258.095 408.572 259.81 403.81 259.81C399.239 259.81 395.429 258.286 392.572 255.81C389.334 252.762 387.619 248.381 387.619 243.238C387.619 238.095 389.334 233.715 392.381 230.667C395.239 227.81 399.239 226.095 403.81 226.095C408.762 226.095 412.762 227.81 415.62 230.667C418.477 233.715 420 237.905 420 242.857C420 247.81 418.477 252.191 415.429 255.238ZM403.619 232.572C398.477 232.572 395.81 236.953 395.81 243.048C395.81 249.334 398.667 253.524 403.81 253.524C408.953 253.524 411.619 249.143 411.619 243.048C411.619 236.762 408.762 232.572 403.619 232.572Z" fill="white"/>
<path d="M447.429 259.238V240.191C447.429 236.762 446.858 233.143 442.667 233.143C439.81 233.143 436.953 234.667 434.477 236.572V259.238H426.286V226.857H433.334L434.286 230.286C437.715 227.619 441.334 226.095 445.715 226.095C450.667 226.095 456.001 228.953 456.001 237.715V259.238H447.429Z" fill="white"/>
<path d="M481.905 218.095C480.572 217.524 479.239 217.143 477.715 217.143C475.048 217.143 473.905 218.667 473.905 221.524V226.667H482.477L480.381 232.952H473.905V259.048H465.715V232.952H460.953V226.667H465.715V222.286C465.715 212.762 472.572 210.667 477.143 210.667C478.858 210.667 481.334 211.047 483.429 212.19L481.905 218.095Z" fill="white"/>
<path d="M492.191 221.714C489.334 221.714 487.048 219.619 487.048 216.762C487.048 214.095 489.143 211.81 492.191 211.81C495.048 211.81 497.334 213.905 497.334 216.762C497.143 219.619 495.048 221.714 492.191 221.714ZM488.001 259.238V226.857H496.191V259.238H488.001Z" fill="white"/>
<path d="M520.953 259.809C511.239 259.809 503.429 254.095 503.429 243.238C503.429 233.143 510.858 226.095 521.334 226.095C523.048 226.095 524.191 226.095 525.524 226.286V210.667H533.715V257.143C530.667 258.857 526.477 259.809 520.953 259.809ZM525.524 232.952C524.382 232.762 523.429 232.381 521.715 232.381C515.81 232.381 511.81 236.19 511.81 242.667C511.81 248.571 515.62 252.952 521.905 252.952C523.239 252.952 524.572 252.762 525.524 252.381V232.952Z" fill="white"/>
<path d="M548.001 245.143C548.191 249.905 552.191 253.334 557.143 253.334C560.191 253.334 562.667 252.572 565.524 251.048L567.429 256.381C563.81 258.857 559.429 260 555.62 260C544.382 260 539.62 251.81 539.62 243.048C539.62 233.905 545.143 226.095 554.286 226.095C563.048 226.095 568.762 232.762 568.762 242.857C568.762 243.429 568.762 244.191 568.762 245.334H548.001V245.143ZM554.286 232.191C550.286 232.191 548.001 235.81 548.001 239.238H560.572C560.191 235.81 558.286 232.191 554.286 232.191Z" fill="white"/>
<path d="M596.191 259.238V240.191C596.191 236.762 595.62 233.143 591.429 233.143C588.572 233.143 585.715 234.667 583.239 236.572V259.238H575.048V226.857H582.096L583.048 230.286C586.477 227.619 590.096 226.095 594.477 226.095C599.429 226.095 604.763 228.953 604.763 237.715V259.238H596.191Z" fill="white"/>
<path d="M626.477 259.81C616.001 259.81 610.477 252.191 610.477 243.048C610.477 233.143 617.524 225.905 627.239 225.905C631.62 225.905 634.667 227.048 636.382 228.191L636.191 234.857C633.905 233.143 631.429 232.191 628.001 232.191C622.477 232.191 618.477 236.571 618.477 242.667C618.477 248.191 621.524 253.143 628.001 253.143C631.048 253.143 633.334 252.191 635.62 250.857L637.715 256.191C635.239 258.095 630.858 259.81 626.477 259.81Z" fill="white"/>
<path d="M649.334 245.143C649.525 249.905 653.525 253.334 658.477 253.334C661.525 253.334 664.001 252.572 666.858 251.048L668.763 256.381C665.144 258.857 660.763 260 656.953 260C645.715 260 640.953 251.81 640.953 243.048C640.953 233.905 646.477 226.095 655.62 226.095C664.382 226.095 670.096 232.762 670.096 242.857C670.096 243.429 670.096 244.191 670.096 245.334H649.334V245.143ZM655.429 232.191C651.429 232.191 649.144 235.81 649.144 239.238H661.715C661.525 235.81 659.62 232.191 655.429 232.191Z" fill="white"/>
<path d="M388 172.762H339.81V20.7617H387.429C418.096 20.7617 432.191 41.7141 432.191 60.1903C432.191 74.6665 426.096 84.3808 413.905 91.8094V92.1904C431.429 96.1904 442.096 108.381 442.096 126.857C442.096 148.571 426.286 172.762 388 172.762ZM383.429 44.3808H367.81V83.9999H382.477C395.048 83.9999 404.191 75.9999 404.191 63.2379C404.191 52.3808 396.762 44.3808 383.429 44.3808ZM388.762 107.238H367.81V149.333H385.524C404.191 149.333 413.334 140.952 413.334 127.238C413.334 115.428 404.381 107.238 388.762 107.238Z" fill="white"/>
<path d="M554.096 43.9998H513.524V172.762H485.334V43.9998H441.334V20.7617H563.048L554.096 43.9998Z" fill="white"/>
<path d="M297.334 172.762L282.286 134.667H228L213.905 172.762H185.905L244.762 20.7617H265.715L326.667 172.762H297.334ZM261.334 76.9522C258.476 69.3332 256.762 63.0475 255.619 58.0951H255.429C254.476 63.4284 252.381 69.3332 249.905 76.5713L236.762 112H273.715L261.334 76.9522Z" fill="white"/>
<path d="M645.715 172.762L630.667 134.667H576.382L562.286 172.762H534.286L593.143 20.7617H614.096L675.048 172.762H645.715ZM609.715 76.9522C606.858 69.3332 605.143 63.0475 604.001 58.0951H603.81C602.858 63.4284 600.763 69.3332 598.286 76.5713L585.143 112H622.096L609.715 76.9522Z" fill="white"/>
<path d="M92.0001 0C89.1429 0 86.2858 0.190478 83.4287 0.380954V15.2381V177.524V183.238C86.2858 183.429 89.1429 183.619 92.0001 183.619C142.667 183.619 183.81 142.476 183.81 91.6191C183.81 41.1429 142.667 0 92.0001 0ZM125.524 100.381C125.143 106.286 124.381 112 123.238 117.524H101.714V100.381H125.524ZM101.714 83.2382V66.0953H123.238C124.381 71.6191 125.143 77.3334 125.524 83.2382H101.714ZM143.619 100.381H165.143C164.381 106.286 163.048 112 161.143 117.524H141.333C142.476 112 143.238 106.286 143.619 100.381ZM143.619 83.2382C143.238 77.3334 142.476 71.6191 141.143 66.0953H160.953C163.048 71.6191 164.381 77.3334 165.143 83.2382H143.619ZM151.81 48.9524H136.381C133.333 40.5715 129.333 32.9524 124.762 25.9048C135.429 31.2381 144.762 39.0477 151.81 48.9524ZM118.286 48.9524H101.714V19.0476C108.572 27.8096 114.095 37.7143 118.286 48.9524ZM101.714 164.953V134.667H118.286C114.286 145.905 108.762 156.191 101.714 164.953ZM124.762 158.095C129.524 151.048 133.333 143.238 136.572 134.667H152.191C144.953 144.572 135.619 152.572 124.762 158.095Z" fill="white"/>
<path d="M18.8572 36.3811C10.4762 47.4287 4.57144 60.3811 1.90477 74.6669H57.1429L18.8572 36.3811Z" fill="white"/>
<path d="M74.6667 56.9523V1.71411C60.5715 4.38078 47.6191 10.2855 36.5715 18.6665L74.6667 56.9523Z" fill="white"/>
<path d="M36.5715 164.572C47.6191 172.953 60.5715 178.857 74.6667 181.524V126.286L36.5715 164.572Z" fill="white"/>
<path d="M57.1429 108.762H1.90477C4.57144 122.857 10.4762 136 18.8572 147.048L57.1429 108.762Z" fill="white"/>
<path d="M74.6667 74.6666V67.6189L30.6667 23.6189C28.1905 25.9046 25.9048 28.1903 23.6191 30.476L67.6191 74.4761H74.6667V74.6666Z" fill="white"/>
<path d="M74.6667 108.762V115.809L30.6667 159.809C28.1905 157.524 25.9048 155.238 23.6191 152.762L67.6191 108.762H74.6667Z" fill="white"/>
<path d="M74.6667 83.4282H0.380954C0.190478 86.2854 0 89.1425 0 91.9997C0 94.8568 0.190478 97.714 0.380954 100.571H74.6667V83.4282Z" fill="white"/>
</svg>
