<svg width="97" height="164" viewBox="0 0 97 164" fill="none" xmlns="http://www.w3.org/2000/svg">
<g clip-path="url(#clip0_2_2)">
<path d="M28.23 47.01H48.21C53.07 47.01 59.48 47.01 62.79 49.02C66.42 51.18 69.27 55.11 69.27 60.52C69.27 66.38 66.19 70.78 61.09 72.86V73.02C67.88 74.41 71.58 79.5 71.58 86.29C71.58 94.39 65.79 102.11 54.84 102.11H28.23V47.01ZM35.56 70.7H50.23C58.56 70.7 61.96 67.69 61.96 61.9C61.96 54.26 56.56 53.18 50.23 53.18H35.56V70.69V70.7ZM35.56 95.93H53.93C60.25 95.93 64.27 92.07 64.27 86.06C64.27 78.88 58.48 76.88 52.31 76.88H35.57V95.94L35.56 95.93Z" fill="white"/>
<path d="M90.33 74.57C90.33 97.71 71.57 116.47 48.42 116.47C25.27 116.47 6.52 97.72 6.52 74.57C6.52 51.42 25.28 32.68 48.42 32.68C71.56 32.68 90.33 51.44 90.33 74.58V74.57ZM48.42 26.28C21.77 26.28 0.16 47.89 0.16 74.55C0.16 101.21 21.77 122.81 48.42 122.81C75.07 122.81 96.69 101.2 96.69 74.55C96.69 47.9 75.08 26.28 48.42 26.28Z" fill="white"/>
<path d="M96.59 132.99H0.259998V139.32H96.59V132.99Z" fill="white"/>
<path d="M93.58 126.02C93.7 126.02 93.81 126.02 93.92 126.01C94.02 126.01 94.12 125.98 94.2 125.95C94.29 125.91 94.35 125.85 94.4 125.78C94.45 125.7 94.47 125.6 94.47 125.47C94.47 125.36 94.45 125.26 94.41 125.2C94.37 125.13 94.31 125.08 94.24 125.05C94.17 125.01 94.1 124.99 94 124.97C93.91 124.97 93.83 124.96 93.73 124.96H93.04V126.03H93.59L93.58 126.02ZM93.81 124.53C94.21 124.53 94.5 124.61 94.7 124.77C94.89 124.93 94.99 125.17 94.99 125.5C94.99 125.81 94.9 126.02 94.74 126.17C94.57 126.31 94.36 126.39 94.1 126.42L95.06 127.9H94.5L93.58 126.45H93.03V127.9H92.5V124.54H93.81V124.53ZM91.44 127.17C91.55 127.47 91.72 127.74 91.94 127.96C92.15 128.18 92.4 128.35 92.69 128.48C92.97 128.6 93.29 128.66 93.62 128.66C93.95 128.66 94.27 128.6 94.55 128.48C94.84 128.35 95.09 128.18 95.3 127.96C95.51 127.74 95.68 127.48 95.79 127.17C95.91 126.87 95.98 126.55 95.98 126.2C95.98 125.85 95.92 125.53 95.79 125.23C95.67 124.93 95.5 124.67 95.3 124.45C95.08 124.23 94.83 124.06 94.55 123.94C94.27 123.82 93.95 123.75 93.62 123.75C93.29 123.75 92.97 123.82 92.69 123.94C92.4 124.07 92.14 124.24 91.94 124.45C91.72 124.67 91.56 124.93 91.44 125.23C91.32 125.53 91.26 125.84 91.26 126.2C91.26 126.56 91.32 126.87 91.44 127.17M90.96 125.06C91.11 124.71 91.32 124.42 91.58 124.16C91.84 123.9 92.15 123.71 92.5 123.56C92.85 123.41 93.23 123.34 93.61 123.34C93.99 123.34 94.38 123.41 94.74 123.56C95.08 123.71 95.39 123.9 95.64 124.16C95.9 124.42 96.12 124.72 96.26 125.06C96.42 125.41 96.49 125.79 96.49 126.2C96.49 126.61 96.42 126.99 96.26 127.34C96.11 127.7 95.9 128 95.64 128.26C95.38 128.53 95.08 128.72 94.74 128.87C94.38 129.01 94.01 129.08 93.61 129.08C93.21 129.08 92.85 129.01 92.5 128.87C92.15 128.72 91.84 128.53 91.58 128.26C91.32 128 91.11 127.7 90.96 127.34C90.8 126.99 90.74 126.61 90.74 126.2C90.74 125.79 90.8 125.41 90.96 125.06Z" fill="white"/>
<path d="M11.93 5.06C11.7 4.69 11.42 4.37 11.08 4.1C10.74 3.82 10.35 3.61 9.92 3.45C9.49 3.3 9.04 3.22 8.57 3.22C7.71 3.22 6.98 3.39 6.37 3.72C5.77 4.05 5.28 4.5 4.91 5.06C4.54 5.62 4.26 6.26 4.09 6.98C3.92 7.7 3.83 8.44 3.83 9.2C3.83 9.96 3.91 10.64 4.09 11.33C4.26 12.02 4.53 12.64 4.91 13.2C5.28 13.75 5.77 14.2 6.37 14.53C6.97 14.86 7.7 15.03 8.57 15.03C9.74 15.03 10.66 14.67 11.31 13.96C11.97 13.24 12.37 12.3 12.52 11.13H16.23C16.13 12.22 15.88 13.2 15.47 14.08C15.06 14.96 14.53 15.71 13.86 16.32C13.19 16.94 12.41 17.41 11.52 17.74C10.63 18.06 9.64 18.23 8.57 18.23C7.24 18.23 6.04 18 4.97 17.53C3.9 17.07 3.01 16.43 2.27 15.61C1.54 14.8 0.98 13.84 0.59 12.74C0.2 11.65 0 10.47 0 9.2C0 7.93 0.19 6.69 0.59 5.58C0.98 4.47 1.54 3.49 2.27 2.67C3 1.84 3.9 1.19 4.97 0.720002C6.03 0.250002 7.23 0.0100021 8.57 0.0100021C9.53 0.0100021 10.44 0.150002 11.29 0.420002C12.14 0.700002 12.91 1.1 13.58 1.63C14.25 2.16 14.81 2.81 15.25 3.59C15.69 4.37 15.97 5.27 16.08 6.27H12.37C12.31 5.83 12.16 5.43 11.93 5.06V5.06Z" fill="white"/>
<path d="M21.22 14.81C21.74 15.31 22.49 15.57 23.46 15.57C24.16 15.57 24.76 15.4 25.27 15.05C25.77 14.7 26.08 14.33 26.2 13.94H29.25C28.76 15.45 28.01 16.54 27 17.19C25.99 17.84 24.77 18.17 23.34 18.17C22.35 18.17 21.45 18.01 20.66 17.69C19.86 17.37 19.19 16.92 18.63 16.34C18.08 15.76 17.65 15.06 17.35 14.24C17.05 13.43 16.9 12.53 16.9 11.56C16.9 10.59 17.05 9.74 17.36 8.93C17.67 8.12 18.11 7.41 18.68 6.82C19.25 6.23 19.93 5.76 20.72 5.42C21.51 5.08 22.38 4.91 23.34 4.91C24.41 4.91 25.35 5.12 26.15 5.53C26.95 5.95 27.6 6.5 28.11 7.2C28.62 7.9 28.99 8.7 29.22 9.59C29.45 10.48 29.53 11.42 29.46 12.4H20.36C20.41 13.52 20.69 14.34 21.21 14.84L21.22 14.81ZM25.14 8.17C24.72 7.72 24.09 7.49 23.25 7.49C22.7 7.49 22.24 7.58 21.87 7.77C21.5 7.96 21.21 8.19 20.99 8.46C20.77 8.74 20.62 9.03 20.53 9.34C20.44 9.65 20.39 9.92 20.37 10.17H26.01C25.85 9.29 25.56 8.62 25.14 8.17V8.17Z" fill="white"/>
<path d="M34.32 5.22V7.56H34.37C34.53 7.17 34.75 6.81 35.03 6.47C35.31 6.14 35.62 5.85 35.98 5.62C36.34 5.39 36.72 5.2 37.13 5.07C37.54 4.94 37.96 4.88 38.4 4.88C38.63 4.88 38.88 4.92 39.16 5V8.22001C39 8.19001 38.8 8.16001 38.57 8.14001C38.34 8.12001 38.12 8.10001 37.91 8.10001C37.28 8.10001 36.74 8.21 36.3 8.42C35.86 8.63 35.51 8.92 35.24 9.29C34.97 9.66 34.78 10.08 34.67 10.57C34.56 11.06 34.5 11.59 34.5 12.16V17.85H31.04V5.22H34.33H34.32Z" fill="white"/>
<path d="M48.43 5.22V7.54H45.89V13.79C45.89 14.38 45.99 14.77 46.18 14.96C46.37 15.15 46.77 15.25 47.35 15.25C47.55 15.25 47.73 15.25 47.91 15.23C48.09 15.21 48.26 15.19 48.42 15.16V17.84C48.13 17.89 47.8 17.92 47.44 17.94C47.08 17.96 46.73 17.97 46.39 17.97C45.85 17.97 45.34 17.93 44.87 17.86C44.39 17.79 43.97 17.65 43.6 17.43C43.23 17.22 42.95 16.92 42.73 16.53C42.52 16.14 42.41 15.63 42.41 14.99V7.54H40.31V5.22H42.41V1.44H45.87V5.22H48.41H48.43Z" fill="white"/>
<path d="M50.44 3.27V0.410004H53.9V3.27H50.44ZM53.9 5.22V17.83H50.44V5.22H53.9Z" fill="white"/>
<path d="M55.28 7.54V5.22H57.35V4.24C57.35 3.12 57.7 2.2 58.4 1.48C59.1 0.760004 60.16 0.410004 61.57 0.410004C61.88 0.410004 62.19 0.420004 62.5 0.450004C62.81 0.470004 63.11 0.500004 63.4 0.510004V3.1C62.99 3.05 62.57 3.03 62.13 3.03C61.66 3.03 61.32 3.14 61.12 3.36C60.92 3.58 60.82 3.95 60.82 4.47V5.23H63.21V7.55H60.82V17.85H57.35V7.54H55.28Z" fill="white"/>
<path d="M65.56 3.27V0.410004H69.02V3.27H65.56ZM69.02 5.22V17.83H65.56V5.22H69.02Z" fill="white"/>
<path d="M74.49 14.81C75.01 15.31 75.76 15.57 76.73 15.57C77.43 15.57 78.03 15.4 78.54 15.05C79.04 14.7 79.35 14.33 79.47 13.94H82.52C82.03 15.45 81.28 16.54 80.28 17.19C79.27 17.84 78.05 18.17 76.62 18.17C75.63 18.17 74.73 18.01 73.94 17.69C73.14 17.37 72.47 16.92 71.91 16.34C71.36 15.76 70.93 15.06 70.63 14.24C70.33 13.43 70.18 12.53 70.18 11.56C70.18 10.59 70.34 9.74 70.64 8.93C70.95 8.12 71.39 7.41 71.96 6.82C72.53 6.23 73.21 5.76 74 5.42C74.79 5.08 75.66 4.91 76.62 4.91C77.69 4.91 78.63 5.12 79.43 5.53C80.23 5.95 80.88 6.5 81.39 7.2C81.9 7.9 82.27 8.7 82.5 9.59C82.73 10.48 82.81 11.42 82.75 12.4H73.65C73.7 13.52 73.98 14.34 74.5 14.84L74.49 14.81ZM78.41 8.17C78 7.72 77.36 7.49 76.52 7.49C75.97 7.49 75.51 7.58 75.14 7.77C74.77 7.96 74.48 8.19 74.26 8.46C74.04 8.74 73.89 9.03 73.8 9.34C73.71 9.65 73.66 9.92 73.64 10.17H79.27C79.11 9.29 78.82 8.62 78.4 8.17H78.41Z" fill="white"/>
<path d="M93.25 16.22C92.84 16.9 92.31 17.4 91.65 17.7C90.99 18 90.25 18.15 89.42 18.15C88.48 18.15 87.65 17.97 86.93 17.6C86.21 17.23 85.62 16.74 85.16 16.11C84.7 15.48 84.35 14.76 84.11 13.95C83.87 13.14 83.76 12.29 83.76 11.41C83.76 10.53 83.88 9.75 84.11 8.96C84.34 8.17 84.7 7.48 85.16 6.87C85.62 6.27 86.21 5.78 86.9 5.42C87.6 5.05 88.41 4.87 89.34 4.87C90.09 4.87 90.8 5.03 91.47 5.35C92.15 5.67 92.68 6.13 93.07 6.75H93.12V0.410004H96.58V17.83H93.29V16.22H93.24H93.25ZM93.1 9.99C93 9.51 92.84 9.09 92.6 8.72C92.36 8.35 92.06 8.06 91.68 7.83C91.31 7.6 90.83 7.49 90.27 7.49C89.71 7.49 89.22 7.6 88.83 7.83C88.44 8.06 88.13 8.36 87.89 8.73C87.66 9.1 87.49 9.53 87.38 10.01C87.27 10.49 87.22 10.99 87.22 11.51C87.22 12 87.28 12.49 87.39 12.97C87.5 13.46 87.69 13.89 87.94 14.28C88.19 14.66 88.51 14.97 88.89 15.21C89.27 15.45 89.73 15.56 90.27 15.56C90.84 15.56 91.31 15.45 91.7 15.22C92.08 14.99 92.39 14.69 92.62 14.3C92.85 13.92 93.01 13.48 93.11 13C93.21 12.51 93.26 12.01 93.26 11.49C93.26 10.97 93.21 10.47 93.11 9.99H93.1Z" fill="white"/>
<path d="M8.71 151.76C8.54 150.54 7.37 149.61 6.03 149.61C3.61 149.61 2.7 151.67 2.7 153.82C2.7 155.97 3.61 157.92 6.03 157.92C7.68 157.92 8.61 156.79 8.81 155.17H11.43C11.15 158.23 9.04 160.19 6.03 160.19C2.23 160.19 0 157.35 0 153.82C0 150.29 2.23 147.34 6.03 147.34C8.73 147.34 10.99 148.92 11.32 151.76H8.71Z" fill="white"/>
<path d="M17.06 150.78C19.86 150.78 21.66 152.63 21.66 155.47C21.66 158.31 19.86 160.14 17.06 160.14C14.26 160.14 12.47 158.28 12.47 155.47C12.47 152.66 14.27 150.78 17.06 150.78V150.78ZM17.06 158.3C18.73 158.3 19.22 156.87 19.22 155.47C19.22 154.07 18.72 152.62 17.06 152.62C15.4 152.62 14.91 154.05 14.91 155.47C14.91 156.89 15.41 158.3 17.06 158.3Z" fill="white"/>
<path d="M23.17 151H25.49V152.65H25.53C25.97 151.53 27.18 150.76 28.37 150.76C28.54 150.76 28.75 150.79 28.9 150.84V153.11C28.67 153.06 28.31 153.03 28.02 153.03C26.23 153.03 25.61 154.32 25.61 155.88V159.88H23.17V151V151Z" fill="white"/>
<path d="M29.84 151.02H32.16V152.15H32.19C32.77 151.21 33.73 150.78 34.83 150.78C37.62 150.78 38.87 153.03 38.87 155.55C38.87 157.92 37.57 160.14 34.97 160.14C33.91 160.14 32.89 159.68 32.31 158.8H32.27V163.03H29.83V151.02H29.84ZM36.44 155.49C36.44 154.08 35.87 152.62 34.31 152.62C32.75 152.62 32.2 154.05 32.2 155.49C32.2 156.93 32.75 158.31 34.33 158.31C35.91 158.31 36.44 156.94 36.44 155.49Z" fill="white"/>
<path d="M44.23 150.78C47.03 150.78 48.84 152.63 48.84 155.47C48.84 158.31 47.03 160.14 44.23 160.14C41.43 160.14 39.65 158.28 39.65 155.47C39.65 152.66 41.45 150.78 44.23 150.78ZM44.23 158.3C45.9 158.3 46.4 156.87 46.4 155.47C46.4 154.07 45.9 152.62 44.23 152.62C42.56 152.62 42.08 154.05 42.08 155.47C42.08 156.89 42.58 158.3 44.23 158.3Z" fill="white"/>
<path d="M50.34 151H52.66V152.65H52.7C53.14 151.53 54.35 150.76 55.53 150.76C55.7 150.76 55.91 150.79 56.06 150.84V153.11C55.84 153.06 55.48 153.03 55.18 153.03C53.39 153.03 52.77 154.32 52.77 155.88V159.88H50.33V151H50.34Z" fill="white"/>
<path d="M56.78 153.75C56.92 151.46 58.96 150.78 60.96 150.78C62.73 150.78 64.86 151.17 64.86 153.3V157.92C64.86 158.73 64.94 159.53 65.17 159.9H62.69C62.61 159.62 62.53 159.33 62.52 159.04C61.75 159.85 60.62 160.14 59.53 160.14C57.85 160.14 56.51 159.3 56.51 157.48C56.51 155.47 58.02 154.99 59.53 154.78C61.03 154.56 62.42 154.61 62.42 153.61C62.42 152.61 61.69 152.41 60.84 152.41C59.91 152.41 59.31 152.79 59.22 153.75H56.78V153.75ZM62.42 155.55C62 155.91 61.15 155.93 60.39 156.07C59.63 156.22 58.95 156.48 58.95 157.38C58.95 158.28 59.65 158.51 60.45 158.51C62.35 158.51 62.43 157 62.43 156.47V155.56L62.42 155.55Z" fill="white"/>
<path d="M69.79 151.02H71.58V152.65H69.79V157.05C69.79 157.88 70 158.08 70.82 158.08C71.08 158.08 71.32 158.06 71.58 158.01V159.92C71.17 159.99 70.63 160.01 70.15 160.01C68.66 160.01 67.35 159.66 67.35 157.9V152.66H65.87V151.03H67.35V148.37H69.79V151.03V151.02Z" fill="white"/>
<path d="M75.85 149.65H73.41V147.64H75.85V149.65ZM73.41 151.03H75.85V159.91H73.41V151.03Z" fill="white"/>
<path d="M82.08 150.78C84.88 150.78 86.69 152.63 86.69 155.47C86.69 158.31 84.88 160.14 82.08 160.14C79.28 160.14 77.5 158.28 77.5 155.47C77.5 152.66 79.3 150.78 82.08 150.78ZM82.08 158.3C83.75 158.3 84.25 156.87 84.25 155.47C84.25 154.07 83.75 152.62 82.08 152.62C80.41 152.62 79.93 154.05 79.93 155.47C79.93 156.89 80.43 158.3 82.08 158.3Z" fill="white"/>
<path d="M88.26 151.02H90.58V152.26H90.63C91.25 151.26 92.31 150.78 93.35 150.78C95.94 150.78 96.6 152.24 96.6 154.44V159.9H94.16V154.88C94.16 153.42 93.73 152.7 92.6 152.7C91.27 152.7 90.71 153.44 90.71 155.25V159.91H88.27V151.03L88.26 151.02Z" fill="white"/>
</g>
<defs>
<clipPath id="clip0_2_2">
<rect width="96.69" height="163.03" fill="white"/>
</clipPath>
</defs>
</svg>
